<?xml version="1.0" encoding="UTF-8" standalone="no"?>
<!-- Created with Inkscape (http://www.inkscape.org/) -->

<svg
   xmlns:dc="http://purl.org/dc/elements/1.1/"
   xmlns:cc="http://creativecommons.org/ns#"
   xmlns:rdf="http://www.w3.org/1999/02/22-rdf-syntax-ns#"
   xmlns:svg="http://www.w3.org/2000/svg"
   xmlns="http://www.w3.org/2000/svg"
   xmlns:sodipodi="http://sodipodi.sourceforge.net/DTD/sodipodi-0.dtd"
   xmlns:inkscape="http://www.inkscape.org/namespaces/inkscape"
   id="svg3406"
   version="1.1"
   inkscape:version="0.91 r13725"
   xml:space="preserve"
   width="765"
   height="990"
   viewBox="0 0 765 990"
   sodipodi:docname="bookfordc_black.ai"><metadata
     id="metadata3412"><rdf:RDF><cc:Work
         rdf:about=""><dc:format>image/svg+xml</dc:format><dc:type
           rdf:resource="http://purl.org/dc/dcmitype/StillImage" /><dc:title></dc:title></cc:Work></rdf:RDF></metadata><defs
     id="defs3410"><clipPath
       clipPathUnits="userSpaceOnUse"
       id="clipPath3432"><path
         d="M 0,792 612,792 612,0 0,0 0,792 Z"
         id="path3434"
         inkscape:connector-curvature="0" /></clipPath></defs><sodipodi:namedview
     pagecolor="#ffffff"
     bordercolor="#666666"
     borderopacity="1"
     objecttolerance="10"
     gridtolerance="10"
     guidetolerance="10"
     inkscape:pageopacity="0"
     inkscape:pageshadow="2"
     inkscape:window-width="908"
     inkscape:window-height="713"
     id="namedview3408"
     showgrid="false"
     inkscape:zoom="0.55656566"
     inkscape:cx="121.97368"
     inkscape:cy="495.89837"
     inkscape:window-x="0"
     inkscape:window-y="0"
     inkscape:window-maximized="0"
     inkscape:current-layer="g3414" /><g
     id="g3414"
     inkscape:groupmode="layer"
     inkscape:label="bookfordc_black"
     transform="matrix(1.25,0,0,-1.25,0,990)"><g
       id="g3416"
       transform="translate(307.1738,456.4541)"><path
         d="m 0,0 3.221,-6.527 7.202,-1.047 -5.21,-5.079 1.23,-7.174 -6.443,3.386 -6.442,-3.386 1.23,7.174 -5.212,5.079 7.203,1.047 L 0,0 Z"
         style="fill:#231f20;fill-opacity:1;fill-rule:nonzero;stroke:none"
         id="path3418"
         inkscape:connector-curvature="0" /></g><g
       id="g3420"
       transform="translate(356.2832,456.4541)"><path
         d="m 0,0 3.223,-6.527 7.203,-1.047 -5.215,-5.079 1.232,-7.174 -6.443,3.386 -6.441,-3.386 1.23,7.174 -5.212,5.079 7.202,1.047 L 0,0 Z"
         style="fill:#231f20;fill-opacity:1;fill-rule:nonzero;stroke:none"
         id="path3422"
         inkscape:connector-curvature="0" /></g><g
       id="g3424"
       transform="translate(258.063,456.4541)"><path
         d="m 0,0 3.222,-6.527 7.203,-1.047 -5.213,-5.079 1.23,-7.174 -6.442,3.386 -6.441,-3.386 1.229,7.174 -5.212,5.079 7.203,1.047 L 0,0 Z"
         style="fill:#231f20;fill-opacity:1;fill-rule:nonzero;stroke:none"
         id="path3426"
         inkscape:connector-curvature="0" /></g><g
       id="g3428"
       style="opacity:1;fill:#ffffff;fill-opacity:1;stroke:#ffffff;stroke-opacity:1"><g
         id="g3430"
         clip-path="url(#clipPath3432)"
         style="fill:#ffffff;fill-opacity:1;stroke:#ffffff;stroke-opacity:1"><g
           id="g3436"
           transform="translate(307.5,330.6455)"
           style="fill:#ffffff;fill-opacity:1;stroke:#ffffff;stroke-opacity:1"><path
             d="m 0,0 c -1.406,4.187 -13.13,31.483 -79.079,29.07 l 1.742,-30.696 c 0,0 54.424,-0.218 75.542,-30.478 l 1.633,0 0.326,0 1.634,0 c 21.117,30.26 75.543,30.478 75.543,30.478 l 1.74,30.696 C 13.133,31.483 1.408,4.187 0,0"
             style="fill:#ffffff;fill-opacity:1;fill-rule:nonzero;stroke:#ffffff;stroke-opacity:1"
             id="path3438"
             inkscape:connector-curvature="0" /></g><g
           id="g3440"
           transform="translate(307.3369,388.9795)"
           style="fill:#ffffff;fill-opacity:1;stroke:#ffffff;stroke-opacity:1"><path
             d="m 0,0 c -1.407,4.187 -13.131,31.483 -79.079,29.07 l 1.741,-30.696 c 0,0 54.425,-0.218 75.542,-30.478 l 1.633,0 0.326,0 1.635,0 c 21.117,30.26 75.543,30.478 75.543,30.478 l 1.74,30.696 C 13.132,31.483 1.407,4.187 0,0"
             style="fill:#ffffff;fill-opacity:1;fill-rule:nonzero;stroke:#ffffff;stroke-opacity:1"
             id="path3442"
             inkscape:connector-curvature="0" /></g></g></g></g></svg>